<?xml version="1.0" encoding="utf-8"?>
<!-- Generator: Adobe Illustrator 22.0.1, SVG Export Plug-In . SVG Version: 6.00 Build 0)  -->
<svg width="2702pt" height="1512pt"
 viewBox="0.00 0.00 2702.15 1511.91" xmlns="http://www.w3.org/2000/svg" xmlns:xlink="http://www.w3.org/1999/xlink">
<style type="text/css">
	.st0{font-family:'CourierNewPSMT';}
	.st1{font-size:8.5px;}
	.st2{fill:#0076C0;}
</style>
<text transform="matrix(1 0 0 1 9 15.584)" class="st0 st1">5’ </text>
<text transform="matrix(1 0 0 1 24.3003 15.584)" class="st2 st0 st1">RDD</text>
<text transform="matrix(1 0 0 1 39.6001 15.584)" class="st0 st1">CGGAGTT…AAGGGC</text>
<text transform="matrix(1 0 0 1 111.0166 15.584)" class="st2 st0 st1">CGHHY</text>
<text transform="matrix(1 0 0 1 136.5176 15.584)" class="st0 st1"> 3’</text>
<text transform="matrix(1 0 0 1 151.8174 15.584)" class="st0 st1"> </text>
<text transform="matrix(1 0 0 1 9 27.085)" class="st0 st1">3’ </text>
<text transform="matrix(1 0 0 1 24.3003 27.085)" class="st2 st0 st1">YHHGC</text>
<text transform="matrix(1 0 0 1 49.8003 27.085)" class="st0 st1">CTCAA…TTCCCGG</text>
<text transform="matrix(1 0 0 1 116.1172 27.085)" class="st2 st0 st1">CDDR</text>
<text transform="matrix(1 0 0 1 136.5176 27.085)" class="st0 st1"> 5’</text>
</svg>
