<?xml version="1.0" encoding="utf-8"?>
<!-- Generator: Adobe Illustrator 22.0.1, SVG Export Plug-In . SVG Version: 6.00 Build 0)  -->
<svg version="1.0" id="Layer_1" xmlns="http://www.w3.org/2000/svg" xmlns:xlink="http://www.w3.org/1999/xlink" x="0px" y="0px"
	 viewBox="0 0 164.5 40" style="enable-background:new 0 0 164.5 40;" xml:space="preserve">
<style type="text/css">
	.st0{fill:#0076C0;}
	.st1{font-family:'CourierNewPSMT';}
	.st2{font-size:8.5px;}
</style>
<text transform="matrix(1 0 0 1 11.5 15.0439)" class="st1 st2">5’ </text>
<text transform="matrix(1 0 0 1 26.8003 15.0439)" class="st0 st1 st2">RDD</text>
<text transform="matrix(1 0 0 1 42.1001 15.0439)" class="st1 st2">YGGAGTT…AAGGGT</text>
<text transform="matrix(1 0 0 1 113.5166 15.0439)" class="st0 st1 st2">CGHHY</text>
<text transform="matrix(1 0 0 1 139.0176 15.0439)" class="st1 st2"> 3’</text>
<text transform="matrix(1 0 0 1 154.3174 15.0439)" class="st1 st2"> </text>
<text transform="matrix(1 0 0 1 11.5 26.5449)" class="st1 st2">3’ </text>
<text transform="matrix(1 0 0 1 26.8003 26.5449)" class="st0 st1 st2">YHH</text>
<text transform="matrix(1 0 0 1 42.1001 26.5449)" class="st1 st2">RCCTCAA…TTCCCA</text>
<text transform="matrix(1 0 0 1 113.5166 26.5449)" class="st0 st1 st2">GCDDR</text>
<text transform="matrix(1 0 0 1 139.0176 26.5449)" class="st1 st2"> 5’</text>
</svg>
